<svg id="visual" viewBox="0 0 960 540" width="960" height="540" xmlns="http://www.w3.org/2000/svg" xmlns:xlink="http://www.w3.org/1999/xlink" version="1.1"><rect x="0" y="0" width="960" height="540" fill="#232323"></rect><defs><linearGradient id="grad1_0" x1="43.8%" y1="0%" x2="100%" y2="100%"><stop offset="14.444444444444446%" stop-color="#232323" stop-opacity="1"></stop><stop offset="85.55555555555554%" stop-color="#232323" stop-opacity="1"></stop></linearGradient></defs><defs><linearGradient id="grad2_0" x1="0%" y1="0%" x2="56.3%" y2="100%"><stop offset="14.444444444444446%" stop-color="#232323" stop-opacity="1"></stop><stop offset="85.55555555555554%" stop-color="#232323" stop-opacity="1"></stop></linearGradient></defs><g transform="translate(960, 0)"><path d="M0 162C-17.4 150 -34.9 137.9 -54.3 131.2C-73.8 124.4 -95.3 123 -112.4 112.4C-129.5 101.9 -142.1 82.2 -149.7 62C-157.2 41.7 -159.6 20.9 -162 0L0 0Z" fill="#FBAE3C"></path></g><g transform="translate(0, 540)"><path d="M0 -162C22.8 -161.4 45.5 -160.9 62 -149.7C78.5 -138.5 88.7 -116.6 99.7 -99.7C110.7 -82.8 122.5 -70.9 133 -55.1C143.6 -39.3 152.8 -19.7 162 0L0 0Z" fill="#FBAE3C"></path></g></svg>